<svg id="svg" xmlns="http://www.w3.org/2000/svg" xmlns:xlink="http://www.w3.org/1999/xlink" width="400" height="1109.0252707581228" viewBox="0, 0, 400,1109.0252707581228"><g id="svgg"><path id="path0" d="M144.167 1.560 C 74.761 4.279,23.078 12.259,6.138 22.871 L 0.001 26.715 0.362 417.265 L 0.722 807.815 6.557 809.505 C 44.566 820.509,344.081 820.860,391.664 809.956 L 398.490 808.392 398.884 782.896 C 399.101 768.874,399.112 592.996,398.910 392.058 L 398.542 26.715 392.412 22.881 C 366.116 6.435,257.600 -2.885,144.167 1.560 M287.365 8.643 C 349.460 13.381,395.143 22.996,390.587 30.368 C 378.175 50.452,186.685 60.286,71.480 46.756 C -36.982 34.019,-0.651 14.796,147.292 6.645 C 165.691 5.631,266.789 7.074,287.365 8.643 M139.350 15.316 C 67.740 18.902,41.063 23.112,42.134 30.656 C 45.109 51.617,362.111 51.617,365.086 30.656 C 365.961 24.494,349.474 20.842,304.693 17.276 C 285.866 15.777,159.950 14.284,139.350 15.316 M20.516 42.850 C 88.907 66.769,332.462 63.805,390.253 38.349 C 392.656 37.291,392.780 54.806,392.780 394.889 C 392.780 734.845,392.655 752.502,390.253 751.759 C 381.153 748.941,328.661 745.725,267.509 744.238 L 226.715 743.246 226.715 739.132 C 226.715 735.108,226.889 735.018,234.657 735.018 L 242.599 735.018 242.599 716.195 C 242.599 697.446,242.587 697.378,239.529 699.015 C 234.354 701.784,229.603 698.626,229.603 692.419 C 229.603 686.082,234.978 682.630,239.981 685.754 C 242.813 687.522,242.890 687.355,242.028 681.341 C 240.893 673.424,240.889 671.942,241.992 665.435 C 242.881 660.189,242.826 660.115,238.199 660.246 C 233.501 660.380,229.603 657.164,229.603 653.154 C 229.603 649.748,235.460 645.166,238.959 645.835 C 242.191 646.453,242.255 646.216,242.255 633.659 C 242.255 621.907,242.038 620.922,239.613 621.692 C 236.772 622.594,231.047 617.962,231.047 614.762 C 231.047 611.150,235.564 606.498,239.071 606.498 C 242.538 606.498,242.599 606.283,242.599 594.139 C 242.599 585.920,242.094 582.091,241.092 582.711 C 238.682 584.200,232.491 579.292,232.491 575.893 C 232.491 571.970,236.452 567.509,239.935 567.509 C 245.206 567.509,243.740 545.786,238.258 542.666 C 231.738 538.956,233.418 528.520,240.536 528.520 C 244.710 528.520,243.338 506.231,238.989 503.382 C 233.815 499.992,234.944 489.531,240.484 489.531 C 244.171 489.531,243.469 466.220,239.711 463.873 C 237.872 462.724,236.823 460.505,236.823 457.762 C 236.823 455.018,237.872 452.799,239.711 451.650 C 244.123 448.895,243.935 429.127,239.440 423.046 L 236.280 418.773 239.440 414.499 C 241.177 412.148,242.599 408.249,242.599 405.835 L 242.599 401.444 239.711 404.332 C 235.785 408.258,231.599 407.961,228.709 403.551 C 223.842 396.123,233.231 387.637,239.769 393.554 C 242.568 396.087,242.599 395.874,242.599 374.231 L 242.599 352.347 200.000 352.347 L 157.401 352.347 157.401 381.949 C 157.401 405.784,157.779 411.552,159.343 411.552 C 166.387 411.552,167.678 423.218,160.971 426.274 C 155.522 428.756,155.552 447.950,161.011 452.244 C 162.996 453.805,164.621 456.367,164.621 457.935 C 164.621 459.504,162.996 462.293,161.011 464.133 C 156.078 468.705,155.584 487.333,160.289 491.362 C 163.986 494.527,163.986 499.904,160.289 503.249 C 156.516 506.664,155.921 529.087,159.567 530.486 C 162.386 531.568,162.386 539.176,159.567 541.516 C 158.375 542.505,157.401 545.633,157.401 548.467 C 157.401 552.822,157.680 553.273,159.206 551.380 C 163.760 545.727,171.841 548.522,171.841 555.750 C 171.841 562.446,163.758 566.068,159.134 561.444 C 157.786 560.096,157.401 560.719,157.401 564.247 C 157.401 566.742,158.113 569.223,158.983 569.760 C 160.480 570.686,160.312 573.338,158.061 584.246 C 157.171 588.562,157.286 588.686,161.616 588.051 C 167.184 587.234,170.397 589.757,170.397 594.946 C 170.397 600.019,167.209 602.662,162.009 601.899 L 157.926 601.299 157.926 614.583 C 157.926 624.995,158.338 627.708,159.833 627.135 C 160.881 626.733,163.319 626.800,165.250 627.284 C 173.255 629.293,169.936 642.051,161.722 640.846 L 157.636 640.246 157.676 652.975 C 157.715 665.314,157.819 665.704,161.066 665.704 C 164.933 665.704,168.953 669.194,168.953 672.553 C 168.953 676.076,164.577 680.144,160.787 680.144 L 157.401 680.144 157.401 707.581 L 157.401 735.018 166.065 735.018 C 174.626 735.018,174.729 735.067,174.729 739.129 L 174.729 743.241 133.213 744.231 C 71.390 745.706,21.253 748.775,9.084 751.829 L 5.776 752.660 5.776 394.948 C 5.776 54.809,5.900 37.291,8.303 38.349 C 9.693 38.961,15.189 40.987,20.516 42.850 M174.729 394.224 C 178.205 397.700,178.340 399.769,175.369 404.011 C 171.362 409.732,161.733 406.826,161.733 399.897 C 161.733 396.590,166.608 391.336,169.675 391.336 C 170.866 391.336,173.141 392.635,174.729 394.224 M196.390 394.224 C 197.978 395.812,199.278 398.087,199.278 399.278 C 199.278 405.367,189.961 409.249,185.663 404.951 C 181.364 400.653,185.246 391.336,191.336 391.336 C 192.527 391.336,194.801 392.635,196.390 394.224 M218.944 395.005 C 223.811 402.433,214.423 410.919,207.884 405.001 C 204.265 401.726,204.285 397.881,207.942 394.224 C 211.868 390.298,216.054 390.595,218.944 395.005 M185.456 413.822 C 186.704 415.070,187.726 417.220,187.726 418.600 C 187.726 426.449,176.245 429.454,173.049 422.442 C 169.610 414.892,179.592 407.957,185.456 413.822 M208.211 415.175 C 211.308 421.973,205.275 428.463,198.268 425.871 C 190.768 423.096,193.963 411.552,202.230 411.552 C 205.451 411.552,206.983 412.480,208.211 415.175 M229.675 414.575 C 231.879 418.693,230.195 424.423,226.364 425.840 C 218.874 428.611,212.896 421.724,217.153 415.228 C 220.245 410.509,227.302 410.141,229.675 414.575 M173.285 433.213 C 180.481 440.408,170.479 450.652,162.930 443.820 C 158.280 439.612,161.929 430.325,168.231 430.325 C 169.422 430.325,171.697 431.625,173.285 433.213 M195.193 432.715 C 200.135 437.187,196.758 446.209,190.143 446.209 C 182.955 446.209,179.734 438.317,184.838 433.213 C 188.351 429.699,191.684 429.539,195.193 432.715 M216.854 432.715 C 221.954 437.331,218.373 446.209,211.410 446.209 C 204.841 446.209,201.731 437.981,206.498 433.213 C 210.012 429.699,213.344 429.539,216.854 432.715 M238.514 432.715 C 243.615 437.331,240.034 446.209,233.071 446.209 C 226.501 446.209,223.391 437.981,228.159 433.213 C 231.673 429.699,235.005 429.539,238.514 432.715 M184.787 453.335 C 187.261 457.958,186.490 461.890,182.612 464.431 C 175.335 469.200,167.688 461.390,172.477 454.081 C 175.395 449.627,182.570 449.192,184.787 453.335 M206.570 453.564 C 210.194 460.335,204.314 467.720,197.395 465.090 C 193.127 463.467,191.656 457.534,194.511 453.457 C 197.291 449.489,204.423 449.552,206.570 453.564 M228.680 453.714 C 230.838 457.163,228.250 463.645,224.106 465.169 C 219.836 466.739,213.222 460.838,214.679 456.759 C 217.053 450.115,225.303 448.321,228.680 453.714 M171.520 471.562 C 177.567 475.798,174.256 485.199,166.717 485.199 C 159.010 485.199,157.266 474.949,164.278 470.864 C 167.596 468.931,167.790 468.950,171.520 471.562 M193.180 471.562 C 199.036 475.664,195.594 485.199,188.257 485.199 C 180.664 485.199,178.999 474.907,185.938 470.864 C 189.256 468.931,189.451 468.950,193.180 471.562 M214.841 471.562 C 220.675 475.648,217.261 485.199,209.966 485.199 C 203.471 485.199,200.846 478.602,205.159 473.119 C 208.613 468.728,210.387 468.443,214.841 471.562 M237.070 471.704 C 242.088 476.245,238.613 485.199,231.834 485.199 C 225.437 485.199,222.916 477.198,227.661 471.955 C 230.626 468.678,233.638 468.598,237.070 471.704 M183.343 492.324 C 187.286 499.691,181.129 507.479,173.948 504.207 C 169.527 502.193,168.846 493.466,172.924 491.090 C 176.964 488.737,181.725 489.301,183.343 492.324 M204.765 491.264 C 209.097 495.595,204.637 505.415,198.338 505.415 C 195.465 505.415,192.058 501.106,192.058 497.473 C 192.058 490.983,200.406 486.904,204.765 491.264 M226.426 491.264 C 232.389 497.227,224.326 507.967,217.329 503.382 C 210.700 499.039,213.179 489.531,220.939 489.531 C 223.004 489.531,225.473 490.310,226.426 491.264 M194.006 512.913 C 196.317 516.575,193.874 522.595,189.646 523.656 C 184.519 524.943,181.320 522.656,180.785 517.322 C 179.998 509.471,189.778 506.210,194.006 512.913 M213.397 510.551 C 219.325 514.703,216.162 524.188,208.850 524.188 C 204.531 524.188,202.166 521.559,202.166 516.761 C 202.166 513.330,206.457 508.303,209.386 508.303 C 209.827 508.303,211.632 509.315,213.397 510.551 M235.626 510.693 C 240.376 514.991,237.612 524.188,231.571 524.188 C 223.927 524.188,220.836 514.894,227.036 510.551 C 231.091 507.711,232.354 507.732,235.626 510.693 M171.552 511.480 C 176.097 516.025,172.572 524.188,166.065 524.188 C 161.293 524.188,158.845 521.740,158.845 516.968 C 158.845 512.195,161.293 509.747,166.065 509.747 C 168.130 509.747,170.599 510.527,171.552 511.480 M180.600 530.015 C 186.106 532.961,182.489 544.404,176.053 544.404 C 169.862 544.404,166.653 535.358,171.222 530.789 C 173.860 528.151,176.683 527.918,180.600 530.015 M203.321 530.253 C 206.381 533.313,205.377 539.794,201.444 542.371 C 194.219 547.105,186.717 536.955,192.883 530.789 C 195.576 528.096,200.891 527.823,203.321 530.253 M224.982 530.253 C 228.042 533.313,227.038 539.794,223.105 542.371 C 215.880 547.105,208.377 536.955,214.544 530.789 C 217.237 528.096,222.552 527.823,224.982 530.253 M190.292 549.540 C 196.487 553.879,193.752 563.177,186.282 563.177 C 181.450 563.177,179.061 560.719,179.061 555.750 C 179.061 552.319,183.353 547.292,186.282 547.292 C 186.722 547.292,188.527 548.304,190.292 549.540 M212.522 549.682 C 217.726 554.392,214.395 563.177,207.406 563.177 C 200.421 563.177,198.004 553.692,203.931 549.540 C 207.986 546.700,209.250 546.721,212.522 549.682 M234.182 549.682 C 239.911 554.866,236.291 563.177,228.305 563.177 C 222.329 563.177,220.347 553.214,225.592 549.540 C 229.647 546.700,230.910 546.721,234.182 549.682 M180.217 569.242 C 184.196 573.221,180.432 583.394,174.980 583.394 C 171.741 583.394,167.509 579.036,167.509 575.702 C 167.509 569.333,175.994 565.019,180.217 569.242 M201.877 569.242 C 205.857 573.221,202.093 583.394,196.641 583.394 C 193.402 583.394,189.170 579.036,189.170 575.702 C 189.170 569.333,197.655 565.019,201.877 569.242 M224.618 571.022 C 227.271 575.071,225.787 579.355,220.809 582.019 C 216.961 584.078,210.830 580.314,210.830 575.893 C 210.830 568.120,220.482 564.710,224.618 571.022 M191.931 591.821 C 194.186 596.034,190.655 601.363,185.262 601.889 C 179.902 602.412,176.821 598.317,178.260 592.583 C 179.904 586.033,188.575 585.550,191.931 591.821 M212.613 589.725 C 214.269 592.239,213.901 598.517,211.986 600.433 C 207.442 604.977,199.278 601.048,199.278 594.319 C 199.278 587.974,209.207 584.554,212.613 589.725 M233.110 588.551 C 237.957 593.398,235.114 602.166,228.695 602.166 C 221.568 602.166,218.642 594.355,223.827 589.170 C 227.304 585.693,230.068 585.509,233.110 588.551 M179.983 610.676 C 183.705 618.169,174.960 625.653,168.895 620.164 C 165.249 616.865,165.301 613.038,169.042 609.297 C 172.791 605.548,177.747 606.173,179.983 610.676 M201.461 609.931 C 206.105 617.019,198.328 624.931,191.265 620.303 C 187.185 617.630,186.776 614.273,189.974 609.708 C 192.961 605.443,198.592 605.553,201.461 609.931 M223.022 609.780 C 227.658 616.855,219.859 624.846,212.819 620.233 C 208.840 617.626,208.459 614.241,211.634 609.708 C 214.572 605.513,220.250 605.549,223.022 609.780 M230.317 626.190 C 237.211 628.835,234.897 641.155,227.507 641.155 C 220.146 641.155,217.103 633.438,222.383 628.159 C 225.494 625.048,226.616 624.769,230.317 626.190 M190.688 630.520 C 193.655 638.324,184.283 644.727,178.442 638.886 C 173.496 633.940,176.915 626.715,184.202 626.715 C 188.317 626.715,189.506 627.412,190.688 630.520 M212.510 630.266 C 215.950 637.815,205.968 644.751,200.103 638.886 C 195.159 633.941,198.575 626.715,205.858 626.715 C 209.804 626.715,211.242 627.482,212.510 630.266 M178.257 648.697 C 181.910 653.911,178.558 661.372,172.563 661.372 C 169.764 661.372,164.621 656.229,164.621 653.430 C 164.621 646.774,174.507 643.343,178.257 648.697 M200.086 649.027 C 204.454 655.693,197.753 663.749,190.894 660.078 C 184.193 656.492,186.705 645.487,194.224 645.487 C 196.391 645.487,198.668 646.862,200.086 649.027 M221.608 648.317 C 226.977 654.250,219.592 663.844,212.555 660.078 C 208.326 657.815,207.273 653.221,210.022 649.027 C 212.839 644.727,218.069 644.407,221.608 648.317 M211.157 669.455 C 214.524 676.844,205.129 683.274,199.031 677.755 C 195.378 674.449,195.729 670.765,200.017 667.393 C 204.407 663.939,209.034 664.796,211.157 669.455 M232.818 669.455 C 236.185 676.844,226.790 683.274,220.691 677.755 C 217.039 674.449,217.390 670.765,221.678 667.393 C 226.068 663.939,230.695 664.796,232.818 669.455 M189.405 669.255 C 191.458 673.760,187.769 680.144,183.113 680.144 C 179.417 680.144,174.729 676.247,174.729 673.175 C 174.729 666.033,186.504 662.888,189.405 669.255 M176.421 686.866 C 181.070 691.074,177.421 700.361,171.119 700.361 C 169.928 700.361,167.653 699.061,166.065 697.473 C 159.029 690.437,169.038 680.185,176.421 686.866 M198.081 686.866 C 204.735 692.888,195.908 704.089,188.869 698.556 C 184.897 695.434,184.380 690.710,187.652 687.438 C 191.236 683.854,194.552 683.672,198.081 686.866 M219.742 686.866 C 224.391 691.074,220.743 700.361,214.440 700.361 C 213.249 700.361,210.975 699.061,209.386 697.473 C 202.350 690.437,212.359 680.185,219.742 686.866 M174.729 752.347 C 174.729 755.128,175.692 755.235,200.722 755.235 C 225.752 755.235,226.715 755.128,226.715 752.347 C 226.715 749.707,227.677 749.459,237.906 749.461 C 276.497 749.469,362.000 753.493,381.949 756.239 L 389.170 757.233 383.051 758.321 C 333.009 767.223,81.682 767.383,18.051 758.555 L 10.830 757.553 16.606 756.515 C 32.412 753.674,100.979 750.269,154.152 749.685 C 173.842 749.468,174.729 749.583,174.729 752.347 M0.000 955.727 L 0.000 1098.457 7.581 1100.099 C 57.481 1110.901,344.680 1110.978,391.697 1100.201 L 398.556 1098.629 398.556 955.813 C 398.556 861.565,398.065 812.996,397.112 812.996 C 396.318 812.996,395.668 813.498,395.668 814.112 C 395.668 814.726,392.256 815.998,388.087 816.940 C 335.736 828.764,5.776 826.371,5.776 814.167 C 5.776 813.523,4.477 812.996,2.888 812.996 C 0.019 812.996,0.000 813.959,0.000 955.727 M191.336 889.892 C 193.718 890.718,196.476 892.025,197.464 892.797 C 198.667 893.738,200.883 893.430,204.180 891.866 C 206.886 890.581,209.815 889.531,210.688 889.531 C 211.560 889.531,212.274 888.881,212.274 888.087 C 212.274 887.292,213.285 886.643,214.520 886.643 C 215.754 886.643,221.278 884.722,226.794 882.375 L 236.823 878.107 236.823 894.649 C 236.823 908.832,236.494 911.191,234.519 911.191 C 233.251 911.191,230.490 912.053,228.382 913.107 C 226.274 914.160,222.411 916.094,219.797 917.405 C 215.662 919.479,214.940 919.511,214.226 917.653 C 212.521 913.208,215.053 908.907,220.891 906.332 C 226.061 904.051,226.715 903.206,226.715 898.812 C 226.715 892.525,224.777 892.456,212.749 898.315 L 203.610 902.768 203.610 913.478 L 203.610 924.188 199.339 924.188 L 195.067 924.188 194.646 913.047 C 194.237 902.264,194.084 901.838,189.892 899.809 C 187.509 898.657,183.835 896.847,181.727 895.788 C 174.752 892.285,171.594 893.194,172.111 898.556 C 172.488 902.473,173.570 903.727,178.648 906.137 C 184.162 908.754,184.738 909.527,184.785 914.373 L 184.838 919.721 180.144 917.372 C 177.563 916.079,173.726 914.160,171.618 913.107 C 169.510 912.053,166.749 911.191,165.481 911.191 C 163.506 911.191,163.177 908.831,163.177 894.640 L 163.177 878.088 175.090 883.239 C 181.643 886.072,188.953 889.066,191.336 889.892 " stroke="none" fill="#000000" fill-rule="evenodd"></path></g></svg>